<svg width="50" height="50" viewBox="0 0 50 50" fill="none" xmlns="http://www.w3.org/2000/svg">
<path d="M7.90619 18.4609C7.90619 18.4609 5.76556 19.8086 5.51947 21.1523C5.27337 22.5 5.76556 24.0898 6.43744 25.1289C7.10931 26.168 7.90619 27.0273 8.88666 27.3945C9.86712 27.7617 10.7226 27.6992 10.7226 27.6992C10.7226 27.6992 12.9882 30.2695 17.0234 33.7578C21.0585 37.2461 26.2031 41.4063 32.0156 44.6484C37.8281 47.8906 39.9101 48.6875 41.4999 48.6875C43.0898 48.6875 43.0312 46.3008 42.8476 45.5664C42.664 44.832 32.4452 33.4531 32.4452 33.4531L7.90619 18.4609Z" fill="#FF8E00"/>
<path d="M12.1916 24.3986L10.6604 22.7462C10.6604 22.7462 9.07053 19.7462 7.60178 19.7462C6.13303 19.7462 5.51975 21.1525 5.51975 21.1525C5.51975 21.1525 5.33615 19.6212 7.17209 16.6876C9.00803 13.754 11.3322 11.4259 13.4143 9.95716C15.4963 8.48841 18.0627 6.77357 19.7776 5.797C21.4924 4.82044 25.2229 3.59388 27.3674 2.85951C29.508 2.12513 34.1604 1.20716 36.301 1.63685C38.4416 2.06654 39.3596 3.53529 39.3596 5.06263C39.3596 6.58997 38.9924 7.63294 38.6877 7.93763C38.383 8.24232 36.3635 9.95716 36.3635 9.95716L12.1916 24.3986Z" fill="#F5B03E"/>
<path d="M16.4844 17.9492L12.6914 20.3984L11.1016 23.5195C11.1016 23.5195 11.4062 24.5586 11.8984 25.1094C12.3867 25.6602 16.4844 29.5859 19.418 32.0938C21.707 34.0508 26.5859 38.2031 26.5859 38.2031C26.5859 38.2031 26.7852 40.2891 27.0156 41.7539C27.1992 42.918 27.2109 44.8594 28.4375 44.8047C29.9844 44.7344 29.0938 41.6016 30.3203 41.6328C32.7695 41.6953 30.3398 48.3203 32.9727 48.2852C35.0703 48.2578 33.7383 44.6367 34.7891 44.0195C35.3594 43.6836 36.4922 45.1094 38.3398 45.918C40.6211 46.9141 42.0117 47.668 42.7461 47.3242C44.2969 46.5977 41.0273 29.6562 40.6602 26.7812C40.293 23.9062 38.4648 9.14062 38.3398 8.65234C38.2148 8.16406 35.707 8.10156 35.707 8.10156L31.8516 9.44922L26.3438 10.1836L19.8594 14.0391L16.4844 17.9492Z" fill="#FFCC8A"/>
<path d="M15.5272 17.3358C14.3241 18.0155 12.7733 18.3944 11.4647 20.5507C10.3748 22.3476 10.0858 24.1874 10.8631 24.328C11.6405 24.4686 12.2303 21.7577 13.2655 20.7265C14.9256 19.0663 16.2694 18.8905 17.2225 18.0077C18.1756 17.1249 19.2186 14.7265 23.1912 12.6054C27.8201 10.1327 30.5858 10.7851 31.6678 10.3788C33.0819 9.84755 33.4647 8.98037 35.2342 8.61318C37.1053 8.22646 38.4061 8.97255 38.4061 8.97255C38.4061 8.97255 38.8319 7.98427 38.2655 7.52333C37.6991 7.0624 36.6561 6.70302 34.9139 7.05849C33.0076 7.44521 31.5936 8.71865 31.2069 8.7538C30.8201 8.78896 26.8631 8.57802 22.1639 11.2616C17.4647 13.9452 16.5858 16.7343 15.5272 17.3358Z" fill="#CB6C22"/>
<path d="M20.9296 21.6096L14.6093 22.9885C14.6093 22.9885 14.5116 24.1877 14.5741 24.5431C14.7851 25.7424 16.3749 27.6525 17.328 27.9689C18.2811 28.2853 20.2226 28.3205 20.8593 28.0392C21.496 27.758 23.4022 26.3791 23.6483 25.6369C23.8944 24.8947 23.828 21.7892 23.3358 21.2931C22.8436 20.801 20.9296 21.6096 20.9296 21.6096Z" fill="#DB0D27"/>
<path d="M16.4807 19.6327C15.8049 20.1561 14.5041 21.9296 14.6096 23.1991C14.715 24.4725 16.9064 26.6952 17.5041 26.9061C18.1017 27.1171 20.0471 27.1522 20.5432 27.0116C21.0392 26.871 22.9455 25.4569 23.2267 24.9647C23.508 24.4686 23.758 21.7147 23.2971 21.2225C22.8361 20.7304 21.4611 19.2811 20.3674 18.9608C19.2697 18.6444 17.1174 19.1366 16.4807 19.6327Z" fill="#ED6D30"/>
<path d="M32.6564 25.5665C32.6564 25.5665 27.0627 25.1641 26.9924 25.5157C26.922 25.8672 26.7931 27.2266 27.1486 28.3204C27.3986 29.0977 27.9963 30.4415 29.8322 31.2149C31.6681 31.9883 33.4338 31.1446 33.8947 30.7891C34.758 30.125 35.3088 29.3047 35.4494 28.8125C35.59 28.3204 32.6564 25.5665 32.6564 25.5665Z" fill="#DB0D27"/>
<path d="M29.9374 22.6327C29.0741 22.9452 27.0077 24.2225 26.9687 25.6366C26.9335 27.0506 27.9569 28.7811 28.4882 29.1678C29.0194 29.5545 30.7851 30.5819 32.0898 30.5116C33.3983 30.4413 35.1991 29.3827 35.4452 28.8162C35.6913 28.2498 35.7968 26.5897 35.6913 25.742C35.5858 24.8944 33.7499 22.9881 32.8319 22.703C31.914 22.4217 30.7147 22.3514 29.9374 22.6327Z" fill="#ED6D30"/>
<path d="M29.7267 35.8435C29.7267 35.8435 24.6056 34.4294 24.5353 34.5349C24.465 34.6404 23.758 35.5232 23.9337 35.949C24.1095 36.3748 25.9103 37.8201 26.6525 38.4568C27.3947 39.0935 29.6369 40.4099 29.9025 40.363C30.5392 40.2576 31.0314 39.2341 31.0314 39.2341L29.7267 35.8435Z" fill="#DB0D27"/>
<path d="M30.1837 33.6876C28.9337 32.7696 27.1094 32.8399 26.1212 33.3009C25.1329 33.7618 24.5313 34.3595 24.4258 34.8204C24.3204 35.2813 25.1368 36.1681 25.4571 36.4142C25.7735 36.6602 26.7344 37.3868 26.7344 37.3868C26.7344 37.3868 28.1602 38.504 28.6876 38.9102C29.4219 39.4767 30.3438 39.797 30.5899 39.8321C30.836 39.8673 31.9844 38.3829 31.7735 36.4024C31.6641 35.3907 31.2344 34.461 30.1837 33.6876Z" fill="#ED6D30"/>
<path d="M39.0861 30.8633L37.1799 30.793C37.1799 30.793 36.4025 32.2422 36.9338 33.8672C37.3674 35.1953 38.2775 35.9883 39.7931 36.4102C41.3127 36.8359 42.1603 36.6836 42.1603 36.6836L42.1838 35.6172L39.0861 30.8633Z" fill="#DB0D27"/>
<path d="M40.9218 28.4259C40.9218 28.4259 38.5702 28.1486 37.3554 30.3322C36.4257 32.008 37.0741 33.4064 37.8163 34.2189C38.5585 35.0314 39.6874 35.5627 40.5351 35.633C41.3827 35.7033 42.2031 35.6369 42.2031 35.6369C42.2031 35.6369 41.8749 33.4689 41.5546 31.6564C41.3593 30.5705 40.9218 28.4259 40.9218 28.4259Z" fill="#ED6D30"/>
<path d="M34.0701 13.1328C34.0701 13.1328 29.5154 13.2734 29.2303 13.7344C28.9451 14.1953 28.949 16.2422 29.0896 17.0547C29.2303 17.8672 30.4686 19.8438 32.9412 19.8789C35.4139 19.9141 36.285 19.2969 37.2459 17.4297C38.2068 15.5625 37.2068 13.4727 37.2068 13.4727L34.0701 13.1328Z" fill="#DB0D27"/>
<path d="M34.1055 11.0469C33.1172 10.8554 31.7383 11.2578 31.0664 11.7187C30.3945 12.1797 29.3008 13.1328 29.2305 13.8398C29.1602 14.5469 29.7969 16.5937 30.043 16.9844C30.2891 17.3711 31.3125 18.4219 31.6328 18.5742C32.375 18.9258 34.4219 18.75 35.0235 18.539C35.625 18.3281 37.2852 16.9844 37.461 16.2773C37.6367 15.5703 37.8477 14.3711 37.0352 12.9219C36.2227 11.4726 35.0235 11.2265 34.1055 11.0469Z" fill="#ED6D30"/>
<path d="M40.539 40.6914L36.4726 40.5156C36.4726 40.5156 35.9257 41.6133 36.0898 42.5742C36.2226 43.3711 36.8828 44.457 38.0663 44.9141C38.7382 45.1719 40.496 45.0039 40.9257 44.7109C41.7929 44.1172 42.0703 43.0391 42.0429 42.4844C42.0312 42.1953 40.539 40.6914 40.539 40.6914Z" fill="#DB0D27"/>
<path d="M39.6522 38.9649C38.5975 38.8048 37.3826 39.3751 36.8592 39.9181C36.3358 40.461 36.2303 41.1407 36.4295 41.961C36.7928 43.461 37.7537 43.8868 38.199 44.1173C38.8592 44.4571 40.6717 44.3907 41.242 43.9571C41.8084 43.5274 42.2381 42.7931 42.1053 41.6642C41.9686 40.5313 41.4686 39.2384 39.6522 38.9649Z" fill="#ED6D30"/>
<path d="M14.0627 12.1213C14.0979 12.9651 15.5744 12.8205 16.1565 12.762C16.6213 12.7151 17.7854 12.6174 17.7854 11.8596C17.7854 11.1018 16.7697 11.1057 16.0119 11.133C15.2815 11.1604 14.0315 11.4534 14.0627 12.1213ZM21.9963 7.15258C21.9963 7.70727 22.6057 7.76195 22.9846 7.7932C23.3635 7.82055 23.8557 7.67602 23.8869 7.24242C23.9143 6.80492 23.5393 6.5432 22.9846 6.51586C22.4025 6.4807 21.9963 6.68383 21.9963 7.15258ZM25.6291 8.48852C26.1877 9.09399 27.0236 8.28539 27.3166 7.90649C27.6057 7.52758 27.6643 6.94555 27.344 6.65649C27.0236 6.36742 26.4143 6.68383 26.008 7.06274C25.6018 7.44164 25.2815 8.10961 25.6291 8.48852ZM31.9377 5.40649C32.6174 6.17602 33.7385 4.88305 34.2033 4.44555C34.6682 4.00805 35.0471 3.39867 34.6096 2.90649C34.1721 2.4143 33.1838 3.10961 32.8088 3.54711C32.4299 3.9807 31.5002 4.9143 31.9377 5.40649ZM10.5158 18.4573C11.176 18.6135 11.3908 17.8323 11.5041 17.2346C11.6213 16.6252 11.6213 16.0432 11.1252 15.9573C10.5627 15.8596 10.2541 16.4221 10.1643 16.9729C10.09 17.469 9.90645 18.3127 10.5158 18.4573Z" fill="#FCC12B"/>
</svg>
